<svg width="80" height="80" viewBox="0 0 80 80" fill="none" xmlns="http://www.w3.org/2000/svg">
<path fill-rule="evenodd" clip-rule="evenodd" d="M43.3333 6.66667H50V13.3333H53.3333V76.6667H56.6667V26.6667L76.6667 36.6667V76.6667H80V80H0V76.6667H3.33333V40H26.6667V76.6667H30V13.3333H33.3333V6.66667H40V0H43.3333V6.66667ZM70 76.6667V70H63.3333V76.6667H70ZM20 76.6667V70H10V76.6667H20ZM46.6667 76.6667V70H36.6667V76.6667H46.6667ZM40 63.3333V20H36.6667V63.3333H40ZM70 63.3333V60H63.3333V63.3333H70ZM10 63.3333V56.6667H6.66667V63.3333H10ZM23.3333 63.3333V56.6667H20V63.3333H23.3333ZM16.6667 63.3333V56.6667H13.3333V63.3333H16.6667ZM46.6667 63.3333V20H43.3333V63.3333H46.6667ZM70 56.6667V53.3333H63.3333V56.6667H70ZM10 53.3333V46.6667H6.66667V53.3333H10ZM16.6667 53.3333V46.6667H13.3333V53.3333H16.6667ZM23.3333 53.3333V46.6667H20V53.3333H23.3333ZM70 50V46.6667H63.3333V50H70ZM70 42.87V39.5367H63.3333V42.87H70Z" fill="white"/>
</svg>
