<svg width="80" height="87" viewBox="0 0 80 87" fill="none" xmlns="http://www.w3.org/2000/svg">
<path fill-rule="evenodd" clip-rule="evenodd" d="M0 87.1375V79.8761H7.27273V65.3532H0L7.25818 50.8302H7.27273V0H72.7273V50.8302H72.7418L80 65.3532H72.7273V79.8761H80V87.1375H0ZM14.5455 83.5068H29.0909V68.9839H14.5455V83.5068ZM65.4545 68.9839H50.9091V83.5068H65.4545V68.9839ZM47.2727 68.9839H32.7273V83.5068H47.2727V68.9839ZM70.4945 54.461H9.50546L5.86909 61.7224H74.1309L70.4945 54.461ZM21.8182 36.3073H14.5455V43.5688H21.8182V36.3073ZM50.9091 36.3073H43.6364V43.5688H50.9091V36.3073ZM36.3636 36.3073H29.0909V43.5688H36.3636V36.3073ZM65.4545 36.3073H58.1818V43.5688H65.4545V36.3073ZM21.8182 21.7844H14.5455V29.0458H21.8182V21.7844ZM50.9091 21.7844H43.6364V29.0458H50.9091V21.7844ZM36.3636 21.7844H29.0909V29.0458H36.3636V21.7844ZM65.4545 21.7844H58.1818V29.0458H65.4545V21.7844ZM21.8182 7.26146H14.5455V14.5229H21.8182V7.26146ZM50.9091 7.26146H43.6364V14.5229H50.9091V7.26146ZM36.3636 7.26146H29.0909V14.5229H36.3636V7.26146ZM65.4545 7.26146H58.1818V14.5229H65.4545V7.26146Z" fill="white"/>
</svg>
