<svg width="80" height="87" viewBox="0 0 80 87" fill="none" xmlns="http://www.w3.org/2000/svg">
<path fill-rule="evenodd" clip-rule="evenodd" d="M0 80.1475H7.27273V0H72.7273V80.1475H80V87.4336H0V80.1475ZM25.4545 69.2183V83.7906H36.3636V69.2183H25.4545ZM43.6364 69.2183V83.7906H54.5455V69.2183H43.6364ZM21.8182 51.003H14.5455V58.2891H21.8182V51.003ZM50.9091 51.003H43.6364V58.2891H50.9091V51.003ZM36.3636 51.003H29.0909V58.2891H36.3636V51.003ZM65.4545 51.003H58.1818V58.2891H65.4545V51.003ZM21.8182 36.4307H14.5455V43.7168H21.8182V36.4307ZM50.9091 36.4307H43.6364V43.7168H50.9091V36.4307ZM36.3636 36.4307H29.0909V43.7168H36.3636V36.4307ZM65.4545 36.4307H58.1818V43.7168H65.4545V36.4307ZM21.8182 21.8584H14.5455V29.1445H21.8182V21.8584ZM50.9091 21.8584H43.6364V29.1445H50.9091V21.8584ZM36.3636 21.8584H29.0909V29.1445H36.3636V21.8584ZM65.4545 21.8584H58.1818V29.1445H65.4545V21.8584ZM21.8182 7.28614H14.5455V14.5723H21.8182V7.28614ZM50.9091 7.28614H43.6364V14.5723H50.9091V7.28614ZM36.3636 7.28614H29.0909V14.5723H36.3636V7.28614ZM65.4545 7.28614H58.1818V14.5723H65.4545V7.28614Z" fill="white"/>
</svg>
