<svg width="80" height="80" viewBox="0 0 80 80" fill="none" xmlns="http://www.w3.org/2000/svg">
<path fill-rule="evenodd" clip-rule="evenodd" d="M80 80H0V20H16.6667V50L40 30V42.3467L33.9067 47.4433L36.0467 50L47.27 40.61L60 30V42.3767L53.9467 47.4433L56.0833 50L71.4233 37.1667L71.4133 37.1533L80 30V80ZM20 60H13.3333V70H20V60ZM53.3333 60H46.6667V70H53.3333V60ZM36.6667 60H30V70H36.6667V60ZM70 60H63.3333V70H70V60ZM10 16.6667H6.66667C7.32667 9.39333 12.6167 3.33333 18.3333 3.33333C19.1533 3.33333 19.9267 3.53 20.61 3.88C21.6633 1.59 23.98 0 26.6667 0C29.3533 0 31.67 1.59 32.7233 3.88C33.4067 3.53 34.18 3.33333 35 3.33333C37.76 3.33333 40 5.57333 40 8.33333C40 11.0933 37.76 13.3333 35 13.3333C34.18 13.3333 33.4067 13.1367 32.7233 12.7867C31.67 15.0767 29.3533 16.6667 26.6667 16.6667C18.85 16.6667 14.26 6.83 10 16.6667Z" fill="white"/>
</svg>
