<svg width="80" height="80" viewBox="0 0 80 80" fill="none" xmlns="http://www.w3.org/2000/svg">
<path fill-rule="evenodd" clip-rule="evenodd" d="M3.33333 80H0V73.3333H3.32667L3.37333 43.3333H16.6667V33.3333H23.3333V43.3333H30V33.3333H36.6667V43.3333H43.3333V33.3333H50V43.3333H56.6667V33.3333H63.3333V43.3333H76.6667V73.3333H80V80H3.33333ZM70 56.6667H10V73.3333H16.6667V63.3333C16.6667 61.4933 18.16 60 20 60C21.84 60 23.3333 61.4933 23.3333 63.3333V73.3333H30V63.3333C30 61.4933 31.4933 60 33.3333 60C35.1733 60 36.6667 61.4933 36.6667 63.3333V73.3333H43.3333V63.3333C43.3333 61.4933 44.8267 60 46.6667 60C48.5067 60 50 61.4933 50 63.3333V73.3333H56.6667V63.3333C56.6667 61.4933 58.16 60 60 60C61.84 60 63.3333 61.4933 63.3333 63.3333V73.3333H70V56.6667ZM50 6.66667H40V10C49.8867 10 60.5267 16.5967 63.3333 30H16.6667C18.49 17.4 28.7933 10.5767 36.6667 10V0H50V6.66667Z" fill="white"/>
</svg>
