<svg width="80" height="80" viewBox="0 0 80 80" fill="none" xmlns="http://www.w3.org/2000/svg">
<path fill-rule="evenodd" clip-rule="evenodd" d="M80 26.6667H73.3333V73.3333H80V80H0V73.3333H6.66667V26.6667H0V20H80V26.6667ZM26.6667 76.6667H36.6667V60H26.6667V76.6667ZM43.3333 76.6667H53.3333V60H43.3333V76.6667ZM33.3333 50H46.6667V30H33.3333V50ZM16.6667 50H30V30H16.6667V50ZM50 50H63.3333V30H50V50ZM30 10V13.3333C30 15.17 28.51 16.6667 26.6667 16.6667C24.8267 16.6667 23.3333 15.1733 23.3333 13.3333V3.33333C23.3333 1.49333 24.8267 0 26.6667 0C28.51 0 30 1.49667 30 3.33333V6.66667H50V3.33333C50 1.49667 51.49 0 53.3333 0C55.1767 0 56.6667 1.49667 56.6667 3.33333V13.3333C56.6667 15.17 55.1767 16.6667 53.3333 16.6667C51.49 16.6667 50 15.17 50 13.3333V10H30ZM61.6667 10V11.6667C61.6667 12.5867 60.92 13.3333 60 13.3333C59.08 13.3333 58.3333 12.5867 58.3333 11.6667V5C58.3333 4.08 59.08 3.33333 60 3.33333C60.92 3.33333 61.6667 4.08 61.6667 5V6.66667H63.3333V10H61.6667ZM18.3333 6.66667V5C18.3333 4.08 19.08 3.33333 20 3.33333C20.92 3.33333 21.6667 4.08 21.6667 5V11.6667C21.6667 12.5867 20.92 13.3333 20 13.3333C19.08 13.3333 18.3333 12.5867 18.3333 11.6667V10H16.6667V6.66667H18.3333Z" fill="white"/>
</svg>
