<svg width="80" height="80" viewBox="0 0 80 80" fill="none" xmlns="http://www.w3.org/2000/svg">
<path fill-rule="evenodd" clip-rule="evenodd" d="M80 80H0V73.3333H3.33333V30C9.31 25.9633 14.9467 22.8233 20.3867 20.58C22.1667 29.7233 30.3767 36.7933 40.2567 36.6667C49.97 36.5433 57.97 29.4433 59.6367 20.4833C65.09 22.7333 70.7167 25.9067 76.6667 30V73.3333H80V80ZM33.3333 76.6667H46.6667V63.3333H33.3333V76.6667ZM16.6667 76.6667H30V63.3333H16.6667V76.6667ZM50 76.6667H63.3333V63.3333H50V76.6667ZM16.6667 56.6667H23.3333V50H16.6667V56.6667ZM30 56.6667H36.6667V50H30V56.6667ZM43.3333 56.6667H50V50H43.3333V56.6667ZM56.6667 56.6667H63.3333V50H56.6667V56.6667ZM16.6667 46.6667H23.3333V40H16.6667V46.6667ZM30 46.6667H36.6667V40H30V46.6667ZM43.3333 46.6667H50V40H43.3333V46.6667ZM56.6667 46.6667H63.3333V40H56.6667V46.6667ZM40 0C49.2 0 56.6667 7.46667 56.6667 16.6667C56.6667 25.8667 49.2 33.3333 40 33.3333C30.8 33.3333 23.3333 25.8667 23.3333 16.6667C23.3333 7.46667 30.8 0 40 0ZM43.3333 6.66667H36.6667V13.3333H30V20H36.6667V26.6667H43.3333V20H50V13.3333H43.3333V6.66667Z" fill="white"/>
</svg>
