<svg width="180" height="60" viewBox="0 0 180 60" fill="none" xmlns="http://www.w3.org/2000/svg">
<path fill-rule="evenodd" clip-rule="evenodd" d="M32.5 5H37.5V10H40V57.5H42.5V20L57.5 27.5V57.5H60V60H0V57.5H2.5V30H20V57.5H22.5V10H25V5H30V0H32.5V5ZM52.5 57.5V52.5H47.5V57.5H52.5ZM15 57.5V52.5H7.5V57.5H15ZM35 57.5V52.5H27.5V57.5H35ZM30 47.5V15H27.5V47.5H30ZM52.5 47.5V45H47.5V47.5H52.5ZM7.5 47.5V42.5H5V47.5H7.5ZM17.5 47.5V42.5H15V47.5H17.5ZM12.5 47.5V42.5H10V47.5H12.5ZM35 47.5V15H32.5V47.5H35ZM52.5 42.5V40H47.5V42.5H52.5ZM7.5 40V35H5V40H7.5ZM12.5 40V35H10V40H12.5ZM17.5 40V35H15V40H17.5ZM52.5 37.5V35H47.5V37.5H52.5ZM52.5 32.1525V29.6525H47.5V32.1525H52.5Z" fill="white"/>
<path fill-rule="evenodd" clip-rule="evenodd" d="M120 60H60V15H72.5V37.5L90 22.5V31.76L85.43 35.5825L87.035 37.5L95.4525 30.4575L105 22.5V31.7825L100.46 35.5825L102.063 37.5L113.568 27.875L113.56 27.865L120 22.5V60V60ZM75 45H70V52.5H75V45ZM100 45H95V52.5H100V45ZM87.5 45H82.5V52.5H87.5V45ZM112.5 45H107.5V52.5H112.5V45ZM67.5 12.5H65C65.495 7.045 69.4625 2.5 73.75 2.5C74.365 2.5 74.945 2.6475 75.4575 2.91C76.2475 1.1925 77.985 0 80 0C82.015 0 83.7525 1.1925 84.5425 2.91C85.055 2.6475 85.635 2.5 86.25 2.5C88.32 2.5 90 4.18 90 6.25C90 8.32 88.32 10 86.25 10C85.635 10 85.055 9.8525 84.5425 9.59C83.7525 11.3075 82.015 12.5 80 12.5C74.1375 12.5 70.695 5.1225 67.5 12.5Z" fill="white"/>
<path fill-rule="evenodd" clip-rule="evenodd" d="M122.5 60H120V55H122.495L122.53 32.5H132.5V25H137.5V32.5H142.5V25H147.5V32.5H152.5V25H157.5V32.5H162.5V25H167.5V32.5H177.5V55H180V60H122.5ZM172.5 42.5H127.5V55H132.5V47.5C132.5 46.12 133.62 45 135 45C136.38 45 137.5 46.12 137.5 47.5V55H142.5V47.5C142.5 46.12 143.62 45 145 45C146.38 45 147.5 46.12 147.5 47.5V55H152.5V47.5C152.5 46.12 153.62 45 155 45C156.38 45 157.5 46.12 157.5 47.5V55H162.5V47.5C162.5 46.12 163.62 45 165 45C166.38 45 167.5 46.12 167.5 47.5V55H172.5V42.5ZM157.5 5H150V7.5C157.415 7.5 165.395 12.4475 167.5 22.5H132.5C133.867 13.05 141.595 7.9325 147.5 7.5V0H157.5V5Z" fill="white"/>
</svg>
