<svg width="10" height="24" viewBox="0 0 10 24" fill="none" xmlns="http://www.w3.org/2000/svg">
<path d="M10 14V16.639C10 18.415 8.375 19.247 8 21H2C1.631 19.218 0 18.418 0 16.639V14H10ZM7.75 22H2.25L3.701 23.659C3.891 23.875 4.166 24 4.453 24H5.547C5.834 24 6.109 23.875 6.299 23.659L7.75 22ZM6.5 0C5.119 0 4 1.119 4 2.5V13H6V2.5C6 2.224 6.225 2 6.5 2C6.775 2 7 2.224 7 2.5V13H9V2.5C9 1.119 7.881 0 6.5 0ZM3 2.5C3 1.547 3.386 0.683 4.006 0.051C3.843 0.018 3.673 0 3.5 0C2.119 0 1 1.119 1 2.5V13H3V2.5Z" fill="white"/>
</svg>
