<svg width="180" height="60" viewBox="0 0 180 60" fill="none" xmlns="http://www.w3.org/2000/svg">
<path fill-rule="evenodd" clip-rule="evenodd" d="M120 60H60V55H62.5V22.5C66.9825 19.4725 71.21 17.1175 75.29 15.435C76.625 22.2925 82.7825 27.595 90.1925 27.5C97.4775 27.4075 103.478 22.0825 104.728 15.3625C108.818 17.05 113.038 19.43 117.5 22.5V55H120V60ZM85 57.5H95V47.5H85V57.5ZM72.5 57.5H82.5V47.5H72.5V57.5ZM97.5 57.5H107.5V47.5H97.5V57.5ZM72.5 42.5H77.5V37.5H72.5V42.5ZM82.5 42.5H87.5V37.5H82.5V42.5ZM92.5 42.5H97.5V37.5H92.5V42.5ZM102.5 42.5H107.5V37.5H102.5V42.5ZM72.5 35H77.5V30H72.5V35ZM82.5 35H87.5V30H82.5V35ZM92.5 35H97.5V30H92.5V35ZM102.5 35H107.5V30H102.5V35ZM90 0C96.9 0 102.5 5.6 102.5 12.5C102.5 19.4 96.9 25 90 25C83.1 25 77.5 19.4 77.5 12.5C77.5 5.6 83.1 0 90 0ZM92.5 5H87.5V10H82.5V15H87.5V20H92.5V15H97.5V10H92.5V5Z" fill="white"/>
<path fill-rule="evenodd" clip-rule="evenodd" d="M147.5 7.5V0H157.5V5H150V7.5H162.5V15H170V20H177.5V55H180V60H120V55H122.5V20H130V15H137.5V7.5H147.5ZM160 57.5V42.5L150 36.66L140 42.5V57.5H145V45L150 42.5L155 45V57.5H160ZM172.5 50V45H167.5V50H172.5ZM132.5 50V45H127.5V50H132.5ZM172.5 40V35H167.5V40H172.5ZM132.5 40V35H127.5V40H132.5ZM150 15C154.14 15 157.5 18.36 157.5 22.5C157.5 26.64 154.14 30 150 30C145.86 30 142.5 26.64 142.5 22.5C142.5 18.36 145.86 15 150 15ZM172.5 30V25H167.5V30H172.5ZM132.5 30V25H127.5V30H132.5ZM150 22.5H155V25H147.5V17.5H150V22.5Z" fill="white"/>
<path fill-rule="evenodd" clip-rule="evenodd" d="M60 20H55V55H60V60H0V55H5V20H0V15H60V20ZM20 57.5H27.5V45H20V57.5ZM32.5 57.5H40V45H32.5V57.5ZM25 37.5H35V22.5H25V37.5ZM12.5 37.5H22.5V22.5H12.5V37.5ZM37.5 37.5H47.5V22.5H37.5V37.5ZM22.5 7.5V10C22.5 11.3775 21.3825 12.5 20 12.5C18.62 12.5 17.5 11.38 17.5 10V2.5C17.5 1.12 18.62 0 20 0C21.3825 0 22.5 1.1225 22.5 2.5V5H37.5V2.5C37.5 1.1225 38.6175 0 40 0C41.3825 0 42.5 1.1225 42.5 2.5V10C42.5 11.3775 41.3825 12.5 40 12.5C38.6175 12.5 37.5 11.3775 37.5 10V7.5H22.5ZM46.25 7.5V8.75C46.25 9.44 45.69 10 45 10C44.31 10 43.75 9.44 43.75 8.75V3.75C43.75 3.06 44.31 2.5 45 2.5C45.69 2.5 46.25 3.06 46.25 3.75V5H47.5V7.5H46.25ZM13.75 5V3.75C13.75 3.06 14.31 2.5 15 2.5C15.69 2.5 16.25 3.06 16.25 3.75V8.75C16.25 9.44 15.69 10 15 10C14.31 10 13.75 9.44 13.75 8.75V7.5H12.5V5H13.75Z" fill="white"/>
</svg>
