<svg width="178" height="63" viewBox="0 0 178 63" fill="none" xmlns="http://www.w3.org/2000/svg">
<path fill-rule="evenodd" clip-rule="evenodd" d="M60 62.6087H0V20.8696H15.6522V0H44.3478V31.3043H60V62.6087ZM28.6957 49.5652H20.8696V60H28.6957V49.5652ZM39.1304 49.5652H31.3043V60H39.1304V49.5652ZM54.7826 49.5652H49.5652V60H54.7826V49.5652ZM10.4348 49.5652H5.21739V60H10.4348V49.5652ZM39.1304 36.5217H33.913V41.7391H39.1304V36.5217ZM26.087 36.5217H20.8696V41.7391H26.087V36.5217ZM54.7826 36.5217H49.5652V41.7391H54.7826V36.5217ZM10.4348 36.5217H5.21739V41.7391H10.4348V36.5217ZM39.1304 26.087H33.913V31.3043H39.1304V26.087ZM26.087 26.087H20.8696V31.3043H26.087V26.087ZM10.4348 26.087H5.21739V31.3043H10.4348V26.087ZM39.1304 15.6522H33.913V20.8696H39.1304V15.6522ZM26.087 15.6522H20.8696V20.8696H26.087V15.6522ZM39.1304 5.21739H33.913V10.4348H39.1304V5.21739ZM26.087 5.21739H20.8696V10.4348H26.087V5.21739Z" fill="white"/>
<path fill-rule="evenodd" clip-rule="evenodd" d="M119.997 62.9975H60V57.9977H119.997V62.9975ZM117.498 55.4978H62.4999V52.9979H117.498V55.4978ZM74.9994 50.5005H64.9998V35.4986C63.6198 35.4986 62.4999 34.3787 62.4999 32.9987C62.4999 31.6188 63.6198 30.4989 64.9998 30.4989H74.9994C76.3793 30.4989 77.4993 31.6188 77.4993 32.9987C77.4993 34.3787 76.3793 35.4986 74.9994 35.4986V50.5005ZM94.9985 50.5005H84.999V35.4986C83.619 35.4986 82.4991 34.3787 82.4991 32.9987C82.4991 31.6188 83.619 30.4989 84.999 30.4989H94.9985C96.3785 30.4989 97.4984 31.6188 97.4984 32.9987C97.4984 34.3787 96.3785 35.4986 94.9985 35.4986V50.5005ZM114.998 50.5005H104.998V35.4986C103.618 35.4986 102.498 34.3787 102.498 32.9987C102.498 31.6188 103.618 30.4989 104.998 30.4989H114.998C116.378 30.4989 117.498 31.6188 117.498 32.9987C117.498 34.3787 116.378 35.4986 114.998 35.4986V50.5005ZM120 27.999H60L89.9987 3L120 27.999V27.999ZM73.8094 22.9992H106.191L89.9987 9.50723L73.8094 22.9992V22.9992ZM89.9862 12.9996C92.4011 12.9996 94.3611 14.9595 94.3611 17.3744C94.3611 19.7893 92.4011 21.7492 89.9862 21.7492C87.5714 21.7492 85.6114 19.7893 85.6114 17.3744C85.6114 14.9595 87.5714 12.9996 89.9862 12.9996Z" fill="white"/>
<path fill-rule="evenodd" clip-rule="evenodd" d="M177.5 63H120V25.5H130V18H137.5V3H160V18H167.5V25.5H177.5V63ZM140 50.5V60.5H147.5V50.5H140ZM150 50.5V60.5H157.53V50.5H150ZM130 50.5H125V55.5H130V50.5ZM172.5 50.5H167.5V55.5H172.5V50.5ZM145 40.5H140V45.5H145V40.5ZM157.53 40.5H152.53V45.5H157.53V40.5ZM130 40.5H125V45.5H130V40.5ZM172.5 40.5H167.5V45.5H172.5V40.5ZM145 30.5H140V35.5H145V30.5ZM157.53 30.5H152.53V35.5H157.53V30.5ZM130 30.5H125V35.5H130V30.5ZM172.5 30.5H167.5V35.5H172.5V30.5ZM145 20.5H140V25.5H145V20.5ZM157.53 20.5H152.53V25.5H157.53V20.5ZM150 10.5H147.5V8H145V15.5H147.5V13H150V15.5H152.5V8H150V10.5Z" fill="white"/>
</svg>
