<svg width="180" height="67" viewBox="0 0 180 67" fill="none" xmlns="http://www.w3.org/2000/svg">
<path fill-rule="evenodd" clip-rule="evenodd" d="M152.548 66.0189H127.548L127.542 40.9703L149.978 20.9909L172.505 40.9703L172.547 66.0189H165.047V48.5129H152.548V66.0189ZM137.548 48.5129H132.548V56.0154H137.548V48.5129ZM147.548 48.5129H142.548V56.0154H147.548V48.5129ZM150.048 11L180 37.5891L176.68 41.3229L150 17.6123L123.32 41.3229L120 37.5891L150.048 11V11Z" fill="white"/>
<path fill-rule="evenodd" clip-rule="evenodd" d="M60 65.3532V59.9071H65.4545V49.0149H60L65.4436 38.1227H65.4545V0H114.545V38.1227H114.556L120 49.0149H114.545V59.9071H120V65.3532H60ZM70.9091 62.6301H81.8182V51.7379H70.9091V62.6301ZM109.091 51.7379H98.1818V62.6301H109.091V51.7379ZM95.4545 51.7379H84.5455V62.6301H95.4545V51.7379ZM112.871 40.8457H67.1291L64.4018 46.2918H115.598L112.871 40.8457ZM76.3636 27.2305H70.9091V32.6766H76.3636V27.2305ZM98.1818 27.2305H92.7273V32.6766H98.1818V27.2305ZM87.2727 27.2305H81.8182V32.6766H87.2727V27.2305ZM109.091 27.2305H103.636V32.6766H109.091V27.2305ZM76.3636 16.3383H70.9091V21.7844H76.3636V16.3383ZM98.1818 16.3383H92.7273V21.7844H98.1818V16.3383ZM87.2727 16.3383H81.8182V21.7844H87.2727V16.3383ZM109.091 16.3383H103.636V21.7844H109.091V16.3383ZM76.3636 5.4461H70.9091V10.8922H76.3636V5.4461ZM98.1818 5.4461H92.7273V10.8922H98.1818V5.4461ZM87.2727 5.4461H81.8182V10.8922H87.2727V5.4461ZM109.091 5.4461H103.636V10.8922H109.091V5.4461Z" fill="white"/>
<path fill-rule="evenodd" clip-rule="evenodd" d="M0 60.1106H5.45455V0H54.5455V60.1106H60V65.5752H0V60.1106ZM19.0909 51.9137V62.8429H27.2727V51.9137H19.0909ZM32.7273 51.9137V62.8429H40.9091V51.9137H32.7273ZM16.3636 38.2522H10.9091V43.7168H16.3636V38.2522ZM38.1818 38.2522H32.7273V43.7168H38.1818V38.2522ZM27.2727 38.2522H21.8182V43.7168H27.2727V38.2522ZM49.0909 38.2522H43.6364V43.7168H49.0909V38.2522ZM16.3636 27.323H10.9091V32.7876H16.3636V27.323ZM38.1818 27.323H32.7273V32.7876H38.1818V27.323ZM27.2727 27.323H21.8182V32.7876H27.2727V27.323ZM49.0909 27.323H43.6364V32.7876H49.0909V27.323ZM16.3636 16.3938H10.9091V21.8584H16.3636V16.3938ZM38.1818 16.3938H32.7273V21.8584H38.1818V16.3938ZM27.2727 16.3938H21.8182V21.8584H27.2727V16.3938ZM49.0909 16.3938H43.6364V21.8584H49.0909V16.3938ZM16.3636 5.4646H10.9091V10.9292H16.3636V5.4646ZM38.1818 5.4646H32.7273V10.9292H38.1818V5.4646ZM27.2727 5.4646H21.8182V10.9292H27.2727V5.4646ZM49.0909 5.4646H43.6364V10.9292H49.0909V5.4646Z" fill="white"/>
</svg>
