<svg width="80" height="80" viewBox="0 0 80 80" fill="none" xmlns="http://www.w3.org/2000/svg">
<path fill-rule="evenodd" clip-rule="evenodd" d="M36.6667 10V0H50V6.66667H40V10H56.6667V20H66.6667V26.6667H76.6667V73.3333H80V80H0V73.3333H3.33333V26.6667H13.3333V20H23.3333V10H36.6667ZM53.3333 76.6667V56.6667L40 48.88L26.6667 56.6667V76.6667H33.3333V60L40 56.6667L46.6667 60V76.6667H53.3333ZM70 66.6667V60H63.3333V66.6667H70ZM16.6667 66.6667V60H10V66.6667H16.6667ZM70 53.3333V46.6667H63.3333V53.3333H70ZM16.6667 53.3333V46.6667H10V53.3333H16.6667ZM40 20C45.52 20 50 24.48 50 30C50 35.52 45.52 40 40 40C34.48 40 30 35.52 30 30C30 24.48 34.48 20 40 20ZM70 40V33.3333H63.3333V40H70ZM16.6667 40V33.3333H10V40H16.6667ZM40 30H46.6667V33.3333H36.6667V23.3333H40V30Z" fill="white"/>
</svg>
