<svg width="176" height="61" viewBox="0 0 176 61" fill="none" xmlns="http://www.w3.org/2000/svg">
<path fill-rule="evenodd" clip-rule="evenodd" d="M112.5 60H67.5V49.64L77.5 40.8V31.05L90 20L102.5 31.05V40.81L112.5 49.65V60ZM95 57.5V50C95 47.24 92.76 45 90 45C87.24 45 85 47.24 85 50V57.5H95ZM105 32.8775L120 46.2675L116.68 50L105 39.54V32.8775V32.8775ZM75 32.8775L60 46.2675L63.32 50L75 39.54V32.8775V32.8775ZM92.5 37.5V32.5C92.5 31.12 91.38 30 90 30C88.62 30 87.5 31.12 87.5 32.5V37.5H92.5ZM82.5 5H87.5V0H92.5V5H97.5V10H92.5V11.8775L110 27.5L106.68 31.2325L90 16.295L73.32 31.2325L70 27.5L87.5 11.95V10H82.5V5Z" fill="white"/>
<path fill-rule="evenodd" clip-rule="evenodd" d="M60 60H0V55H2.5C9.99 42.74 12.3625 22.5375 12.5 15H30C30.135 22.35 32.5125 42.455 40 55H44.355L42.75 52.2675C39.7625 46.905 37.88 40.9025 36.4975 34.9575C37.1675 30.81 37.46 27.1925 37.5 25H50C50.1 30.5125 51.8825 45.59 57.5 55H60V60ZM14.2825 45H19.2825L16.365 52.5L26.7825 40H21.7825L24.7 32.5L14.2825 45ZM46.5925 12.7125C47.1875 11.4075 48.49 10.5 50 10.5C51.51 10.5 52.8125 11.4075 53.4075 12.7125C53.7925 12.5125 54.2275 12.4 54.6875 12.4C56.24 12.4 57.5 13.6775 57.5 15.25C57.5 16.8225 56.24 18.1 54.6875 18.1C54.2275 18.1 53.7925 17.9875 53.4075 17.7875C52.8125 19.0925 51.51 20 50 20C48.49 20 47.1875 19.0925 46.5925 17.7875C46.2075 17.9875 45.7725 18.1 45.3125 18.1C43.76 18.1 42.5 16.8225 42.5 15.25C42.5 13.6775 43.76 12.4 45.3125 12.4C45.7725 12.4 46.2075 12.5125 46.5925 12.7125ZM20 12.5C20.495 7.045 24.4625 2.5 28.75 2.5C29.365 2.5 29.945 2.6475 30.4575 2.91C31.2475 1.1925 32.985 0 35 0C37.015 0 38.7525 1.1925 39.5425 2.91C40.055 2.6475 40.635 2.5 41.25 2.5C43.32 2.5 45 4.18 45 6.25C45 8.32 43.32 10 41.25 10C40.635 10 40.055 9.8525 39.5425 9.59C38.7525 11.3075 37.015 12.5 35 12.5C29.1375 12.5 25.695 5.1225 22.5 12.5H20Z" fill="white"/>
<path fill-rule="evenodd" clip-rule="evenodd" d="M151 60.0725H141V52.5725C141 51.2475 140.472 49.975 139.535 49.0375C138.597 48.1 137.325 47.5725 136 47.5725C134.675 47.5725 133.402 48.1 132.465 49.0375C131.527 49.975 131 51.2475 131 52.5725V60.0725H121V23.26L136 10.0725L151 23.26V60.0725ZM157.038 47.5725H153.5V40.0725H158.5C166.925 40.0725 165.84 55.0725 176 55.0725V60.0725H173.5C161.998 60.0725 162.495 47.5725 157.038 47.5725ZM153.5 35.0725H159.75C160.083 35.0725 160.4 35.205 160.635 35.4375C160.868 35.6725 161 35.99 161 36.3225C161 36.655 160.868 36.9725 160.635 37.2075C160.4 37.44 160.083 37.5725 159.75 37.5725H153.5V35.0725ZM141 37.5725V27.5725C141 24.8125 138.76 22.5725 136 22.5725C133.24 22.5725 131 24.8125 131 27.5725V37.5725H141ZM136 0L156 17.77L152.68 21.5L136 6.6825L119.32 21.5L116 17.77L136 0Z" fill="white"/>
</svg>
