<svg width="80" height="80" viewBox="0 0 80 80" fill="none" xmlns="http://www.w3.org/2000/svg">
<path fill-rule="evenodd" clip-rule="evenodd" d="M70 80H10V66.1867L23.3333 54.4V41.4L40 26.6667L56.6667 41.4V54.4133L70 66.2V80ZM46.6667 76.6667V66.6667C46.6667 62.9867 43.68 60 40 60C36.32 60 33.3333 62.9867 33.3333 66.6667V76.6667H46.6667ZM60 43.8367L80 61.69L75.5733 66.6667L60 52.72V43.8367ZM20 43.8367L0 61.69L4.42667 66.6667L20 52.72V43.8367ZM43.3333 50V43.3333C43.3333 41.4933 41.84 40 40 40C38.16 40 36.6667 41.4933 36.6667 43.3333V50H43.3333ZM30 6.66667H36.6667V0H43.3333V6.66667H50V13.3333H43.3333V15.8367L66.6667 36.6667L62.24 41.6433L40 21.7267L17.76 41.6433L13.3333 36.6667L36.6667 15.9333V13.3333H30V6.66667Z" fill="white"/>
</svg>
