<svg width="40" height="40" viewBox="0 0 40 40" fill="none" xmlns="http://www.w3.org/2000/svg">
<path d="M0 10C0 4.47715 4.47715 0 10 0H30C35.5228 0 40 4.47715 40 10V30C40 35.5228 35.5228 40 30 40H10C4.47715 40 0 35.5228 0 30V10Z" fill="#794DFD"/>
<path d="M20.1261 11.7158C18.2731 13.3399 18.2651 10.1017 20.1261 11.7158ZM20.1407 11.7011C18.5164 9.84819 21.7553 9.84004 20.1407 11.7011ZM21.3229 11.3031C21.4968 11.4004 21.5698 11.6031 21.543 11.7895C21.4882 12.1647 21.0265 12.4714 20.1551 11.7158C20.7095 11.2297 21.0998 11.1781 21.3229 11.3031ZM20.1405 11.7304C21.7651 13.5833 18.5261 13.5914 20.1405 11.7304ZM13.5232 16.8583C13.5232 16.8583 13.7248 17.6314 13.4728 18.1691C13.4728 18.1691 14.2626 18.2196 14.7499 16.9424C15.2373 15.6651 14.834 15.2229 15.7414 14.0828C16.649 12.9427 19.0171 13.157 20.1353 14.6695C21.4075 14.6695 22.4386 15.7007 22.4386 16.9729C22.4386 17.7945 22.0071 18.5137 21.3594 18.9214C21.2812 18.9754 21.2246 19.0069 21.2043 19.0148C21.2039 19.015 21.2037 19.0152 21.2037 19.0152C21.1989 19.0169 21.196 19.018 21.196 19.018L21.196 19.0187C21.074 19.0661 20.9597 19.1584 20.8811 19.2863C20.7202 19.5481 20.8681 19.7873 21.0887 19.9069C21.1999 19.9674 21.3336 19.9675 21.4594 19.92C22.0111 19.6849 22.417 19.246 22.6788 18.7245C22.7906 18.8221 22.9544 18.8448 23.1097 18.8118C23.2335 18.7853 23.3354 18.6988 23.4002 18.5809C23.7435 17.8899 23.6868 17.0988 23.3922 16.4027C23.6451 16.4993 23.8512 16.3414 23.9457 16.1248C23.9962 16.0087 23.985 15.8754 23.9266 15.7542C23.2273 14.4394 21.3598 14.1114 20.1354 14.6695C21.2537 13.157 23.6217 12.9427 24.5293 14.0828C25.4367 15.2229 25.0334 15.6651 25.5208 16.9424C26.0081 18.2196 26.798 18.1691 26.798 18.1691C26.5459 17.6314 26.7476 16.8583 26.7476 16.8583C27.5374 19.9505 29.1282 18.7398 29.1282 18.7398C26.3307 13.7565 20.1354 8.80012 20.1354 8.80012C20.1354 8.80012 13.94 13.7565 11.1426 18.7398C11.1426 18.7398 12.7333 19.9505 13.5232 16.8583" fill="white"/>
<path d="M16.3441 15.754C16.2857 15.8752 16.2746 16.0084 16.3252 16.1245C16.4195 16.3412 16.6257 16.4991 16.8785 16.4024C16.584 17.0986 16.5273 17.8896 16.8706 18.5807C16.9354 18.6986 17.0372 18.7851 17.1609 18.8116C17.3163 18.8446 17.4801 18.8219 17.5919 18.7242C17.8537 19.2457 18.2596 19.6847 18.8113 19.9197C18.9372 19.9673 19.0709 19.9671 19.1821 19.9067C19.4027 19.7871 19.5505 19.5479 19.3897 19.2861C19.3111 19.1582 19.1967 19.0659 19.0747 19.0185L19.0748 19.0178C19.0748 19.0178 19.0718 19.0167 19.0671 19.0149C19.0671 19.0149 19.0668 19.0148 19.0664 19.0145C19.0461 19.0067 18.9895 18.975 18.9112 18.9211C18.2637 18.5134 17.8321 17.7942 17.8321 16.9726C17.8321 15.7004 18.8633 14.6693 20.1354 14.6693C18.9109 14.1112 17.0435 14.4392 16.3441 15.754Z" fill="white"/>
<path d="M12.8696 19.2645C12.8237 19.3752 12.8764 19.5018 12.9868 19.5479C13.0976 19.5937 13.2243 19.5412 13.2702 19.4306C13.3161 19.32 13.2636 19.1931 13.153 19.1472C13.0424 19.1015 12.9155 19.1539 12.8696 19.2645Z" fill="#794DFD"/>
<path d="M13.9129 18.8558C13.8365 19.0401 13.9238 19.2515 14.1081 19.3281C14.2924 19.4044 14.5038 19.317 14.5802 19.1328C14.6567 18.9483 14.5692 18.737 14.3851 18.6605C14.2007 18.5842 13.9894 18.6714 13.9129 18.8558Z" fill="#794DFD"/>
<path d="M15.1239 17.9799C15.0082 18.2585 15.1406 18.5778 15.4191 18.6935C15.6976 18.8092 16.0172 18.677 16.1328 18.3985C16.2483 18.1199 16.1161 17.8005 15.8376 17.6849C15.5589 17.5694 15.2394 17.7014 15.1239 17.9799Z" fill="#794DFD"/>
<path d="M27.2834 19.5479C27.3938 19.5017 27.4465 19.3752 27.4006 19.2645C27.3547 19.1539 27.2278 19.1015 27.1172 19.1472C27.0066 19.1931 26.9541 19.32 27 19.4306C27.0459 19.5412 27.1726 19.5937 27.2834 19.5479Z" fill="#794DFD"/>
<path d="M26.1619 19.3281C26.3462 19.2516 26.4335 19.0401 26.3571 18.8559C26.2806 18.6714 26.0694 18.5842 25.8849 18.6605C25.7007 18.737 25.6133 18.9483 25.6898 19.1328C25.7662 19.3171 25.9775 19.4044 26.1619 19.3281Z" fill="#794DFD"/>
<path d="M24.8512 18.6935C25.1298 18.5778 25.2621 18.2585 25.1465 17.98C25.0309 17.7014 24.7114 17.5693 24.4327 17.6848C24.1541 17.8005 24.022 18.1199 24.1375 18.3985C24.2531 18.677 24.5728 18.8092 24.8512 18.6935Z" fill="#794DFD"/>
<path d="M21.7248 17.4868C21.7765 17.3262 21.805 17.1551 21.805 16.9773C21.805 16.7995 21.7765 16.6284 21.7248 16.4678C21.6271 16.7304 21.2813 16.9773 20.5508 16.9773C21.2813 16.9773 21.6271 17.2243 21.7248 17.4868Z" fill="#794DFD"/>
<path d="M18.9097 15.8596C19.1858 15.8147 19.5713 15.9913 19.9353 16.6221C19.5702 15.9894 19.6111 15.5667 19.7894 15.3506C19.4437 15.4249 19.139 15.6072 18.9097 15.8596Z" fill="#794DFD"/>
<path d="M21.3714 15.8596C21.142 15.6072 20.8373 15.4249 20.4916 15.3506C20.67 15.5667 20.7108 15.9894 20.3457 16.6221C20.7098 15.9913 21.0953 15.8147 21.3714 15.8596Z" fill="#794DFD"/>
<path d="M18.9097 18.0948C19.139 18.3473 19.4437 18.5295 19.7894 18.6038C19.6111 18.3878 19.5702 17.9648 19.9353 17.3325C19.5713 17.9631 19.1858 18.1399 18.9097 18.0948Z" fill="#794DFD"/>
<path d="M18.5562 16.4677C18.5046 16.6283 18.4761 16.7995 18.4761 16.9773C18.4761 17.1551 18.5046 17.3262 18.5562 17.4868C18.6539 17.2243 18.9997 16.9773 19.7303 16.9773C18.9997 16.9773 18.6539 16.7304 18.5562 16.4677Z" fill="#794DFD"/>
<path d="M21.3714 18.0948C21.0953 18.1399 20.7098 17.9631 20.3457 17.3325C20.7108 17.9648 20.67 18.3878 20.4916 18.6038C20.8373 18.5295 21.142 18.3473 21.3714 18.0948Z" fill="#794DFD"/>
<path d="M20.1407 17.2207C20.2751 17.2207 20.384 17.1117 20.384 16.9773C20.384 16.8428 20.2751 16.7339 20.1407 16.7339C20.0063 16.7339 19.8975 16.8428 19.8975 16.9773C19.8975 17.1117 20.0063 17.2207 20.1407 17.2207Z" fill="white"/>
<path d="M20.1257 11.7157C18.2646 10.1016 18.2727 13.3397 20.1257 11.7157Z" fill="#794DFD"/>
<path d="M20.1403 11.7009C21.755 9.83982 18.516 9.84797 20.1403 11.7009Z" fill="#794DFD"/>
<path d="M20.1403 11.7303C18.5258 13.5913 21.7649 13.5832 20.1403 11.7303Z" fill="#794DFD"/>
<path d="M21.5427 11.7893C21.5696 11.6029 21.4966 11.4002 21.3227 11.303C21.0994 11.1779 20.7093 11.2296 20.1548 11.7156C21.0262 12.4712 21.4879 12.1645 21.5427 11.7893Z" fill="#794DFD"/>
<path d="M13.7541 22.1264C13.7851 22.018 13.8271 21.933 13.8665 21.8699C14.0283 21.611 14.3019 21.4565 14.5985 21.4565C14.9142 21.4565 15.2043 21.6332 15.3555 21.9175C15.3977 21.9969 15.4403 22.1062 15.4602 22.2457C15.5498 22.2239 15.6324 22.2155 15.7061 22.2155C16.1945 22.2155 16.5771 22.5897 16.5771 23.0672C16.5771 23.3283 16.4595 23.5907 16.2104 23.7847C16.4102 23.992 16.4889 24.2363 16.4812 24.4574C16.4652 24.9171 16.0882 25.2773 15.6229 25.2774H15.6227C15.5249 25.2774 15.3969 25.2613 15.2526 25.2035C15.2217 25.312 15.1796 25.397 15.1402 25.4601C14.9785 25.7189 14.7048 25.8736 14.4083 25.8736C14.0926 25.8736 13.8026 25.697 13.6514 25.4126C13.6092 25.3333 13.5665 25.2239 13.5466 25.0844C13.4571 25.1063 13.3745 25.1146 13.3008 25.1146H13.3006C12.981 25.1146 12.698 24.9548 12.5433 24.687C12.3893 24.4205 12.391 24.0995 12.5475 23.8283C12.5951 23.7459 12.6727 23.6426 12.7964 23.5456C12.5964 23.3382 12.5177 23.0939 12.5254 22.8727C12.5415 22.4128 12.9187 22.0525 13.384 22.0525C13.4817 22.0525 13.6098 22.0686 13.7541 22.1264ZM11.8614 23.48C9.80644 23.3362 11.8703 27.5687 13.0222 25.8608C11.8703 27.5687 16.5673 27.8972 15.6643 26.0457C16.5673 27.8972 19.2003 23.9933 17.1454 23.8499C19.2003 23.9933 17.1367 19.7618 15.9846 21.4693C17.1367 19.7618 12.4394 19.4324 13.3425 21.2845C12.4394 19.4324 9.80644 23.3362 11.8614 23.48" fill="white"/>
<path d="M26.899 25.1146C26.8252 25.1146 26.7425 25.1063 26.653 25.0844C26.633 25.2239 26.5904 25.3332 26.5482 25.4124C26.3971 25.6969 26.1071 25.8735 25.7915 25.8736H25.7913C25.4948 25.8736 25.2212 25.7191 25.0594 25.4603C25.02 25.3972 24.978 25.312 24.9469 25.2035C24.8026 25.2613 24.6746 25.2774 24.5769 25.2774C24.1115 25.2774 23.7344 24.9173 23.7184 24.4576C23.7106 24.2365 23.7892 23.9922 23.989 23.785C23.7554 23.6014 23.6224 23.3424 23.6224 23.0673C23.6224 22.5897 24.0051 22.2155 24.4936 22.2155C24.5673 22.2155 24.6499 22.2239 24.7395 22.2457C24.7594 22.1062 24.802 21.9969 24.8442 21.9175C24.9954 21.6332 25.2855 21.4565 25.6011 21.4565C25.8978 21.4565 26.1714 21.611 26.3332 21.8699C26.3726 21.9329 26.4146 22.018 26.4456 22.1264C26.5899 22.0687 26.7179 22.0526 26.8156 22.0526C27.2811 22.0526 27.6583 22.4128 27.6743 22.8727C27.682 23.0939 27.6033 23.3382 27.4035 23.5455C27.6525 23.7395 27.7701 24.0018 27.7701 24.2628C27.7701 24.7404 27.3875 25.1146 26.899 25.1146ZM26.8572 21.2845C27.7602 19.4324 23.0629 19.7618 24.2151 21.4693C23.0629 19.7618 20.9994 23.9933 23.0543 23.8499C20.9994 23.9933 23.6324 27.8972 24.5353 26.0457C23.6324 27.8972 28.3294 27.5687 27.1775 25.8608C28.3294 27.5687 30.3932 23.3362 28.3382 23.48C30.3932 23.3362 27.7602 19.4324 26.8572 21.2845" fill="white"/>
<path d="M25.9288 24.0099C27.1865 25.8739 24.5283 26.0601 25.5141 24.0391C24.5283 26.0601 23.0384 23.8514 25.2817 23.6943C23.0384 23.8514 24.206 21.4563 25.4639 23.3202C24.206 21.4563 26.8644 21.2697 25.8786 23.2907C26.8644 21.2697 28.3543 23.4791 26.1113 23.6355C28.3543 23.4791 27.1865 25.8739 25.9288 24.0099ZM27.7701 24.2627C27.7701 24.0017 27.6525 23.7395 27.4035 23.5455C27.6034 23.3382 27.6821 23.0939 27.6744 22.8727C27.6583 22.4128 27.2812 22.0525 26.8157 22.0525C26.718 22.0525 26.5899 22.0686 26.4457 22.1264C26.4147 22.018 26.3727 21.9329 26.3333 21.8699C26.1715 21.611 25.8979 21.4565 25.6012 21.4565C25.2855 21.4565 24.9955 21.6332 24.8443 21.9175C24.8022 21.9968 24.7595 22.1062 24.7395 22.2457C24.65 22.2239 24.5674 22.2155 24.4936 22.2155C24.0052 22.2155 23.6226 22.5897 23.6226 23.0673C23.6226 23.3423 23.7555 23.6013 23.9891 23.7849C23.7893 23.9922 23.7107 24.2364 23.7184 24.4576C23.7345 24.9172 24.1116 25.2774 24.5769 25.2774C24.6747 25.2774 24.8027 25.2613 24.9471 25.2035C24.978 25.312 25.0201 25.3971 25.0595 25.4603C25.2213 25.7191 25.4949 25.8735 25.7914 25.8735H25.7916C26.1072 25.8735 26.3971 25.6968 26.5483 25.4124C26.5905 25.3331 26.6331 25.2238 26.653 25.0844C26.7427 25.1063 26.8253 25.1146 26.899 25.1146C27.3875 25.1146 27.7702 24.7403 27.7701 24.2627" fill="#794DFD"/>
<path d="M14.3213 23.2907C13.3356 21.2697 15.994 21.4563 14.7361 23.3202C15.994 21.4563 17.1615 23.8514 14.9182 23.6942C17.1615 23.8514 15.6716 26.0601 14.6859 24.039C15.6716 26.0601 13.0135 25.8738 14.2711 24.0099C13.0135 25.8738 11.8457 23.4791 14.0888 23.6355C11.8457 23.4791 13.3356 21.2697 14.3213 23.2907ZM12.5257 22.8727C12.518 23.0938 12.5966 23.3382 12.7966 23.5455C12.673 23.6425 12.5953 23.7458 12.5477 23.8283C12.3912 24.0994 12.3896 24.4204 12.5435 24.687C12.6982 24.9547 12.9813 25.1145 13.3008 25.1145H13.301C13.3748 25.1145 13.4573 25.1063 13.5469 25.0844C13.5668 25.2239 13.6095 25.3333 13.6517 25.4126C13.8029 25.697 14.0929 25.8736 14.4085 25.8735C14.7051 25.8735 14.9787 25.7189 15.1405 25.46C15.1799 25.3969 15.2219 25.312 15.2529 25.2035C15.3972 25.2612 15.5252 25.2773 15.6229 25.2773H15.6231C16.0884 25.2772 16.4654 24.917 16.4815 24.4573C16.4892 24.2363 16.4105 23.992 16.2106 23.7846C16.4598 23.5907 16.5774 23.3282 16.5774 23.0671C16.5774 22.5896 16.1947 22.2155 15.7064 22.2155C15.6326 22.2155 15.55 22.2239 15.4605 22.2457C15.4406 22.1062 15.3979 21.9968 15.3558 21.9175C15.2046 21.6331 14.9145 21.4564 14.5988 21.4564C14.3022 21.4564 14.0285 21.6109 13.8668 21.8698C13.8274 21.933 13.7854 22.018 13.7544 22.1264C13.61 22.0686 13.482 22.0525 13.3843 22.0525C12.9189 22.0525 12.5417 22.4128 12.5257 22.8727" fill="#794DFD"/>
<path d="M29.6499 19.9143C29.6499 19.9143 29.109 20.2224 29.4457 20.9672C29.2093 20.9544 28.9781 21.2089 29.2515 21.593C29.6493 22.1519 30.1037 22.9998 29.651 24.8144C28.9166 26.6916 27.0891 28.0253 24.9549 28.0253C24.7445 28.0253 24.5406 28.0089 24.3427 27.9806C21.4072 27.3364 21.3335 24.4052 21.3335 24.4052C20.8337 25.1898 21.2521 25.9519 21.2521 25.9519C21.2521 25.9519 20.395 25.3218 20.5966 24.0109C20.7983 22.7001 20.0998 22.5362 20.0998 22.5362C20.0998 22.5362 19.4013 22.7001 19.603 24.0109C19.8046 25.3218 18.9475 25.9519 18.9475 25.9519C18.9475 25.9519 19.3659 25.1898 18.8661 24.4052C18.8661 24.4052 18.7924 27.3364 15.8569 27.9806C15.659 28.0089 15.4551 28.0253 15.2448 28.0253C13.1105 28.0253 11.2831 26.6916 10.5486 24.8144C10.0959 22.9998 10.5503 22.1519 10.9481 21.593C11.2215 21.2089 10.9904 20.9544 10.7539 20.9672C11.0906 20.2224 10.5497 19.9143 10.5497 19.9143C10.0807 20.9697 9.7998 22.0087 9.7998 22.9838C9.7998 25.9909 12.2376 28.4287 15.2448 28.4287C15.247 28.4287 15.2493 28.4285 15.2515 28.4285C15.3254 28.4284 15.3987 28.4264 15.4712 28.4228C15.526 28.4201 15.5801 28.4159 15.634 28.4112C15.6489 28.41 15.664 28.4092 15.6789 28.4078C18.111 28.1849 19.6559 26.1655 19.6559 26.1655C19.6559 26.1655 18.4932 28.1452 17.8378 28.725C17.8378 28.725 18.7169 28.9381 19.3979 28.7573C18.3128 29.3937 17.3743 29.0869 17.2855 29.0554L17.2846 29.055C17.2805 29.0536 17.2779 29.0528 17.2779 29.0528L17.2777 29.0532C17.1655 29.0127 17.0383 29.0133 16.9209 29.0659C16.6811 29.1736 16.574 29.4553 16.6816 29.6952C16.724 29.7893 16.7934 29.8622 16.8762 29.9103C16.5629 29.9111 16.3538 29.869 16.307 29.8581L16.3057 29.8581C16.2998 29.8567 16.2958 29.8557 16.2958 29.8557L16.2956 29.8564C16.1323 29.8186 15.9547 29.8407 15.7996 29.9339C15.4825 30.1245 15.3801 30.5359 15.5705 30.8529C15.6668 31.0126 15.8192 31.1178 15.9873 31.1584C17.0806 31.373 18.0916 30.8996 18.8669 30.1312C18.4463 30.7593 18.1069 31.2102 18.1069 31.2102H20.0998H22.0927C22.0927 31.2102 21.7533 30.7593 21.3328 30.1313C22.1081 30.8996 23.119 31.373 24.2124 31.1584C24.3804 31.1178 24.5329 31.0126 24.6291 30.8529C24.8195 30.5359 24.7171 30.1245 24.4001 29.9339C24.2449 29.8407 24.0673 29.8186 23.904 29.8564L23.9039 29.8557C23.9039 29.8557 23.8998 29.8567 23.8939 29.8581L23.8927 29.8581C23.8458 29.869 23.6367 29.9111 23.3234 29.9103C23.4062 29.8622 23.4756 29.7893 23.518 29.6952C23.6257 29.4553 23.5185 29.1736 23.2788 29.0659C23.1613 29.0133 23.0342 29.0127 22.9219 29.0532L22.9217 29.0528C22.9217 29.0528 22.9191 29.0536 22.915 29.055L22.9141 29.0554C22.8253 29.0869 21.8868 29.3937 20.8017 28.7573C21.4827 28.9381 22.3619 28.725 22.3619 28.725C21.7064 28.1452 20.5437 26.1655 20.5437 26.1655C20.5437 26.1655 22.0887 28.1849 24.5207 28.4078C24.5356 28.4092 24.5507 28.4101 24.5656 28.4112C24.6196 28.4157 24.6735 28.4202 24.7284 28.4228C24.8009 28.4262 24.874 28.4284 24.9481 28.4285C24.9504 28.4285 24.9526 28.4287 24.9549 28.4287C27.962 28.4287 30.3998 25.9909 30.3998 22.9838C30.3998 22.0087 30.1189 20.9697 29.6499 19.9143Z" fill="white"/>
</svg>
